<svg xmlns="http://www.w3.org/2000/svg" width="800" height="800" viewBox="0 0 800 800" version="1.1"><path d="M 0.741 337.150 C 1.424 337.994, 1.718 338.949, 1.394 339.272 C 0.104 340.563, 7.672 353.477, 13.296 359.581 C 16.581 363.146, 19.474 365.859, 19.724 365.609 C 19.975 365.359, 21.569 366.482, 23.267 368.105 C 28.860 373.450, 62.472 388.280, 74.045 390.509 C 75.124 390.717, 76.364 391.107, 76.800 391.376 C 77.951 392.088, 99.863 397.705, 104.086 398.371 C 106.059 398.682, 108.309 399.163, 109.086 399.440 C 110.561 399.964, 114.063 400.647, 120 401.567 C 121.925 401.866, 124.850 402.526, 126.500 403.034 C 129.277 403.890, 155.335 408.300, 164.500 409.466 C 166.700 409.746, 169.850 410.176, 171.500 410.421 C 183.706 412.233, 207.533 415.037, 208.867 414.818 C 209.765 414.671, 210.950 414.827, 211.500 415.165 C 212.050 415.503, 216.740 416.076, 221.921 416.437 C 227.103 416.798, 231.603 417.243, 231.921 417.426 C 232.240 417.609, 237.673 418.080, 243.996 418.472 C 250.319 418.865, 255.740 419.339, 256.043 419.527 C 256.808 420, 292.759 421.779, 313.500 422.370 C 319.550 422.543, 323.150 422.491, 321.500 422.256 C 317.720 421.716, 1.992 337.106, 0.557 336.248 C -0.024 335.900, 0.059 336.306, 0.741 337.150 M 309.398 468.997 C 303.234 469.901, 294.320 473.142, 288.309 476.665 C 281.267 480.792, 271.832 490.888, 267.739 498.677 C 261.054 511.399, 261.031 511.669, 261.015 578.250 L 261 638 283.500 638 L 306 638 306 605 L 306 572 330 572 L 354 572 354 553 L 354 534 330 534 L 306 534 306 520.517 L 306 507.033 332.250 506.767 L 358.500 506.500 358.772 487.250 L 359.043 468 336.772 468.125 C 324.522 468.193, 312.204 468.586, 309.398 468.997 M 493.917 468.405 C 493.688 468.627, 491.886 469.063, 489.914 469.373 C 472.796 472.065, 457.715 486.565, 454.109 503.799 C 453.363 507.362, 453 530.222, 453 573.549 L 453 638 475.500 638 L 498 638 498 554 C 498 495.546, 497.678 470, 496.941 470 C 496.359 470, 496.160 469.550, 496.500 469 C 497.082 468.058, 494.812 467.535, 493.917 468.405" stroke="none" fill="#220f9b" fill-rule="evenodd"/><path d="M 297.715 163.040 C 285.450 165.102, 272.118 174.928, 266.451 186.084 C 260.992 196.829, 261.025 196.339, 261.012 266.750 L 261 332 310 332 L 359 332 359 313 L 359 294 332.500 294 L 306 294 306 228 C 306 165.765, 305.900 162.007, 304.250 162.118 C 303.288 162.182, 300.347 162.597, 297.715 163.040 M 459 163.496 C 432.331 168.863, 409.828 186.841, 398.089 212.156 C 392.141 224.986, 390.572 232.381, 390.592 247.500 C 390.606 257.837, 391.061 262.095, 392.812 268.289 C 401.688 299.670, 424.154 321.957, 455.163 330.142 C 471.782 334.529, 494.379 332.632, 510.425 325.503 C 543.001 311.030, 564.442 275.810, 561.512 241.585 C 558.157 202.408, 530.007 170.676, 492.162 163.409 C 483.209 161.690, 467.773 161.730, 459 163.496 M 463.222 211.971 C 452.891 215.689, 445.735 222.580, 440.863 233.500 C 439.121 237.404, 438.633 240.363, 438.635 247 C 438.639 257.835, 441.265 264.940, 447.979 272.287 C 462.662 288.352, 487.163 288.915, 502.539 273.539 C 522.307 253.770, 514.305 220.691, 487.572 211.664 C 480.936 209.423, 469.916 209.562, 463.222 211.971 M 155.500 249.603 C 96.222 259.867, 63.942 268.598, 38.045 281.371 C 18.769 290.878, 7.850 301.383, 2.517 315.550 C 0.487 320.943, 0.078 323.570, 0.374 329.289 C 0.675 335.108, 1.072 336.479, 2.620 337.032 C 3.654 337.402, 74.785 356.534, 160.688 379.547 C 246.592 402.561, 316.723 421.640, 316.535 421.945 C 316.347 422.250, 318.962 422.463, 322.347 422.417 C 325.731 422.371, 328.944 422.576, 329.486 422.872 C 333.309 424.958, 463.676 424.645, 494.996 422.474 C 498.573 422.226, 509.600 421.555, 519.500 420.983 C 535.528 420.056, 545.916 419.291, 568 417.408 C 638.630 411.385, 706.264 398.766, 744.554 384.465 C 775.241 373.004, 791.922 359.478, 798.658 340.597 C 800.311 335.965, 801.527 320, 800.227 320 C 799.760 320, 798.811 317.788, 798.118 315.084 C 795.692 305.617, 786.830 294.470, 775.619 286.781 C 759.516 275.737, 731.429 266.486, 686.814 257.532 C 666.028 253.359, 634.911 248, 631.473 248 L 629 248 629 274.806 L 629 301.612 640.250 303.382 C 682.668 310.056, 726.081 320.377, 738.405 326.717 L 741.311 328.212 733.896 331.482 C 688.802 351.369, 592.110 365.472, 465.500 370.628 C 430.164 372.067, 338.178 371.405, 307 369.487 C 302.875 369.233, 294.775 368.787, 289 368.495 C 283.225 368.203, 275.800 367.743, 272.500 367.472 C 269.200 367.201, 257.950 366.295, 247.500 365.459 C 237.050 364.623, 226.925 363.761, 225 363.543 C 223.075 363.325, 218.350 362.850, 214.500 362.486 C 210.650 362.123, 206.375 361.657, 205 361.450 C 203.625 361.243, 197.100 360.380, 190.500 359.533 C 168.339 356.688, 155.381 354.745, 144 352.560 C 139.875 351.768, 132.870 350.443, 128.433 349.614 C 121.327 348.288, 111.078 345.915, 100 343.031 C 85.552 339.269, 61.004 330.364, 61.001 328.882 C 61.001 328.542, 65.162 326.672, 70.250 324.726 C 92.099 316.370, 122.831 308.914, 159 303.195 L 170.500 301.377 170.766 274.689 L 171.033 248 167.266 248.109 C 165.195 248.169, 159.900 248.841, 155.500 249.603" stroke="none" fill="#1353da" fill-rule="evenodd"/></svg>